<svg xmlns="http://www.w3.org/2000/svg" viewBox="80 400 1100 450" role="img" aria-labelledby="title desc">
  <title id="title">MAYS Computers</title>
  <desc id="desc">MAYS Computers - Complete IT Solution, dark theme logo</desc>
  <defs>
    <linearGradient id="whiteMark" x1="0" y1="0" x2="0" y2="1">
      <stop offset="0" stop-color="#FFFFFF"/>
      <stop offset="1" stop-color="#F0F2F5"/>
    </linearGradient>
    <linearGradient id="electricBlue" x1="0" y1="0" x2="0" y2="1">
      <stop offset="0" stop-color="#079BFF"/>
      <stop offset="1" stop-color="#084DE8"/>
    </linearGradient>
  </defs>
  <path fill="url(#whiteMark)" fill-rule="evenodd" d="M915 485 L912 491 L912 493 L910 497 L910 500 L909 501 L909 510 L908 511 L909 512 L909 521 L910 522 L910 525 L914 533 L914 535 L916 537 L918 541 L926 549 L927 549 L933 554 L937 556 L939 556 L942 558 L947 559 L948 560 L951 560 L952 561 L958 561 L959 562 L1066 562 L1067 563 L1070 563 L1074 565 L1079 570 L1081 574 L1081 584 L1080 585 L1080 587 L1079 589 L1073 595 L1069 597 L1067 597 L1066 598 L1061 598 L1060 599 L913 599 L913 630 L1069 630 L1070 629 L1075 629 L1076 628 L1083 627 L1095 621 L1097 619 L1098 619 L1108 609 L1108 608 L1110 606 L1114 598 L1114 596 L1116 592 L1116 589 L1117 588 L1117 568 L1116 567 L1116 564 L1115 563 L1115 561 L1111 553 L1109 551 L1109 550 L1099 540 L1098 540 L1096 538 L1086 533 L1084 533 L1083 532 L1080 532 L1079 531 L1076 531 L1075 530 L1069 530 L1068 529 L960 529 L950 524 L947 520 L945 516 L945 506 L947 502 L953 496 L957 494 L959 494 L960 493 L1112 493 L1112 487 L1113 486 L1112 484 L1112 474 L1113 473 L1113 461 L1111 459 L1110 460 L1109 459 L964 459 L963 460 L955 460 L954 461 L951 461 L947 463 L944 463 L941 465 L939 465 L933 468 L931 470 L927 472 L918 481 L918 482 Z M660 460 L660 461 L684 485 L684 486 L763 566 L763 630 L801 630 L801 567 L809 559 L809 558 L811 557 L811 556 L851 516 L851 515 L886 480 L886 479 L904 461 L904 460 L900 460 L899 459 L860 459 L859 460 L856 460 L819 498 L819 499 L796 522 L796 523 L783 536 L782 536 L773 527 L773 526 L754 507 L754 506 L738 490 L738 489 L723 474 L723 473 L709 459 L696 459 L695 460 L686 460 L685 459 L684 460 L683 459 L665 459 L664 460 Z M139 460 L139 630 L176 630 L177 629 L177 512 L178 511 L216 550 L216 551 L242 577 L242 578 L272 609 L274 609 L275 608 L275 607 L300 582 L300 581 L329 552 L329 551 L368 511 L369 512 L369 630 L406 630 L406 460 L404 459 L371 459 L370 460 L368 460 L357 471 L357 472 L355 474 L354 474 L354 475 L336 493 L336 494 L319 511 L319 512 L316 515 L315 515 L315 516 L298 533 L298 534 L278 554 L278 555 L274 559 L270 557 L270 556 L232 517 L232 516 L215 499 L215 498 L214 498 L212 496 L212 495 L177 459 L143 459 L142 460 Z"/>
  <path fill="url(#electricBlue)" fill-rule="evenodd" d="M435 630 L482 630 L485 627 L485 626 L488 623 L488 622 L491 619 L491 618 L494 615 L494 614 L497 611 L497 610 L500 607 L500 606 L503 603 L503 602 L506 599 L506 598 L510 594 L510 593 L515 587 L515 586 L518 583 L518 582 L522 578 L522 577 L525 574 L525 573 L528 570 L528 569 L531 566 L531 565 L534 562 L534 561 L537 558 L537 557 L541 553 L541 552 L544 549 L544 548 L547 545 L547 544 L550 541 L550 540 L553 537 L553 536 L556 533 L556 532 L559 529 L559 528 L566 520 L566 519 L569 516 L570 514 L575 520 L575 521 L578 524 L580 528 L585 533 L585 534 L588 537 L588 538 L592 542 L592 543 L597 549 L597 550 L601 554 L601 555 L604 558 L604 559 L608 563 L608 564 L613 570 L613 571 L621 580 L621 581 L624 584 L624 585 L627 588 L627 589 L630 592 L630 593 L635 598 L635 599 L641 606 L643 610 L648 615 L650 619 L659 630 L707 630 L705 628 L703 624 L696 616 L696 615 L691 610 L691 609 L688 606 L688 605 L685 602 L685 601 L682 598 L682 597 L677 592 L677 591 L674 588 L674 587 L671 584 L671 583 L668 580 L668 579 L665 576 L665 575 L660 570 L660 569 L657 566 L657 565 L653 561 L653 560 L650 557 L650 556 L646 552 L646 551 L642 547 L642 546 L639 543 L639 542 L636 539 L636 538 L632 534 L632 533 L629 530 L629 529 L625 525 L625 524 L622 521 L622 520 L619 517 L619 516 L611 507 L611 506 L608 503 L608 502 L605 499 L605 498 L601 494 L601 493 L598 490 L598 489 L595 486 L595 485 L591 481 L591 480 L588 477 L588 476 L585 473 L585 472 L582 469 L582 468 L575 460 L573 460 L572 459 L566 459 L564 460 L560 464 L560 465 L557 468 L557 469 L554 472 L554 473 L550 477 L550 478 L547 481 L547 482 L544 485 L544 486 L541 489 L541 490 L538 493 L538 494 L534 498 L534 499 L531 502 L531 503 L528 506 L528 507 L525 510 L525 511 L521 515 L521 516 L518 519 L518 520 L515 523 L515 524 L512 527 L512 528 L509 531 L509 532 L505 536 L505 537 L502 540 L502 541 L499 544 L499 545 L496 548 L496 549 L493 552 L493 553 L490 556 L490 557 L487 560 L487 561 L483 565 L483 566 L480 569 L480 570 L477 573 L477 574 L474 577 L474 578 L470 582 L470 583 L467 586 L467 587 L464 590 L464 591 L461 594 L461 595 L458 598 L458 599 L455 602 L455 603 L451 607 L449 611 L446 614 L446 615 L439 623 L439 624 L436 627 Z"/>
  <path fill="#FFFFFF" fill-rule="evenodd" d="M877 667 L877 711 L885 711 L885 699 L886 698 L886 696 L885 695 L886 694 L892 694 L893 695 L894 698 L898 703 L902 711 L911 711 L912 710 L910 708 L907 702 L901 694 L905 692 L910 687 L911 685 L911 676 L908 672 L908 671 L904 668 L902 668 L901 667 Z M885 676 L887 674 L897 674 L899 675 L902 678 L902 683 L899 686 L897 687 L886 687 L885 686 L885 681 L886 680 L886 677 Z M796 667 L795 668 L796 670 L796 674 L795 675 L795 709 L796 711 L826 711 L826 703 L805 703 L804 702 L804 693 L805 692 L825 692 L826 690 L826 685 L825 684 L805 684 L804 683 L804 675 L805 674 L806 675 L807 674 L826 674 L826 667 Z M711 667 L711 674 L724 674 L725 675 L725 711 L733 711 L733 675 L734 674 L746 674 L747 673 L747 668 L746 667 Z M624 667 L624 698 L625 699 L625 701 L627 705 L630 708 L636 711 L650 711 L656 708 L660 703 L661 701 L661 699 L662 698 L662 667 L654 667 L654 695 L653 696 L653 698 L648 703 L646 703 L645 704 L640 704 L636 702 L634 700 L633 698 L633 696 L632 695 L632 667 Z M567 668 L565 668 L564 667 L540 667 L540 710 L541 711 L548 711 L548 695 L549 694 L562 694 L563 693 L566 693 L568 692 L573 687 L573 685 L574 684 L574 677 L573 676 L573 674 Z M548 675 L549 674 L560 674 L562 675 L565 678 L565 683 L562 686 L560 686 L559 687 L549 687 L548 686 Z M440 667 L440 710 L441 711 L448 711 L449 710 L449 682 L450 681 L452 684 L452 686 L454 689 L454 691 L456 694 L456 696 L458 699 L458 701 L460 704 L460 706 L463 711 L466 711 L467 710 L467 708 L470 703 L470 701 L473 696 L473 694 L476 689 L477 684 L479 681 L480 682 L480 711 L488 711 L488 703 L489 702 L488 700 L488 698 L489 697 L489 690 L488 689 L488 680 L489 679 L489 672 L488 671 L488 667 L476 667 L475 669 L475 671 L473 674 L473 676 L468 686 L468 688 L466 692 L464 694 L459 684 L459 682 L457 679 L457 677 L455 674 L455 672 L453 668 L452 667 Z M970 666 L969 667 L967 667 L965 668 L960 672 L958 676 L958 681 L959 682 L959 684 L961 686 L961 687 L962 687 L964 689 L968 691 L970 691 L971 692 L974 692 L975 693 L978 693 L980 694 L983 697 L983 699 L980 703 L978 703 L977 704 L971 704 L970 703 L968 703 L966 702 L963 699 L961 699 L958 702 L957 705 L960 708 L964 710 L966 710 L967 711 L972 711 L973 712 L976 712 L977 711 L981 711 L982 710 L984 710 L989 706 L991 702 L991 699 L992 698 L991 697 L991 693 L990 691 L986 687 L984 686 L982 686 L981 685 L979 685 L978 684 L975 684 L974 683 L969 682 L967 680 L967 677 L970 674 L979 674 L985 677 L987 677 L987 676 L990 673 L990 671 L983 667 L980 667 L979 666 Z M361 667 L357 669 L355 671 L354 671 L348 679 L348 681 L347 682 L347 685 L346 686 L346 691 L347 692 L347 696 L350 702 L356 708 L362 711 L376 711 L377 710 L379 710 L383 707 L384 707 L386 705 L386 704 L389 701 L391 697 L391 693 L392 692 L392 685 L391 684 L391 681 L388 675 L383 670 L382 670 L380 668 L378 668 L374 666 L365 666 L364 667 Z M362 675 L364 675 L365 674 L374 674 L376 675 L381 680 L382 682 L382 684 L383 685 L383 693 L380 699 L375 703 L373 703 L372 704 L366 704 L362 702 L357 697 L356 695 L356 692 L355 691 L355 686 L356 685 L356 683 L358 679 Z M275 667 L271 669 L269 671 L268 671 L265 674 L265 675 L262 679 L262 681 L261 682 L261 686 L260 687 L262 698 L264 702 L270 708 L274 710 L276 710 L277 711 L290 711 L296 708 L301 703 L301 701 L298 700 L296 698 L294 698 L289 703 L287 703 L286 704 L281 704 L280 703 L278 703 L276 702 L272 698 L270 694 L270 691 L269 690 L269 688 L270 687 L270 683 L272 679 L275 676 L279 674 L288 674 L290 675 L294 679 L301 676 L300 673 L297 670 L296 670 L292 667 L289 667 L288 666 L279 666 L278 667 Z"/>
  <path fill="url(#electricBlue)" fill-rule="evenodd" d="M1029 685 L1029 690 L1030 691 L1112 691 L1113 689 L1113 686 L1112 685 Z M139 685 L139 690 L140 691 L223 691 L223 685 Z"/>
  <path fill="url(#electricBlue)" fill-rule="evenodd" d="M923 769 L923 774 L1045 774 L1045 769 Z M208 769 L208 774 L209 775 L210 774 L331 774 L331 769 Z M824 763 L824 787 L826 788 L828 788 L829 787 L829 763 Z M772 763 L772 782 L773 784 L776 787 L778 788 L784 788 L788 786 L789 787 L794 787 L794 764 L793 763 L789 763 L788 764 L788 780 L784 783 L780 783 L777 780 L777 763 Z M889 763 L887 763 L886 762 L882 762 L881 763 L879 763 L877 765 L876 763 L871 763 L871 787 L874 787 L875 788 L877 787 L877 780 L876 779 L876 775 L877 774 L877 771 L878 769 L881 767 L884 767 L886 768 L888 771 L888 787 L893 787 L893 782 L894 781 L894 774 L893 773 L893 768 L892 766 Z M848 762 L847 763 L845 763 L843 764 L839 768 L838 770 L838 773 L837 774 L838 776 L838 780 L839 782 L844 787 L846 788 L854 788 L858 786 L862 782 L863 780 L863 775 L864 774 L863 773 L863 770 L862 768 L858 764 L856 763 L854 763 L853 762 Z M848 767 L853 767 L857 771 L858 773 L858 778 L857 780 L853 783 L848 783 L846 782 L843 779 L843 772 Z M734 762 L733 763 L731 763 L729 764 L725 768 L724 770 L724 772 L723 773 L723 777 L724 778 L724 780 L725 782 L729 786 L733 788 L740 788 L741 787 L743 787 L748 782 L749 780 L749 776 L750 775 L749 774 L749 770 L748 768 L744 764 L742 763 L740 763 L739 762 Z M734 767 L739 767 L743 771 L744 773 L744 778 L743 780 L740 783 L734 783 L732 782 L729 778 L729 772 Z M590 762 L589 763 L587 763 L581 768 L580 770 L580 780 L581 782 L586 787 L588 787 L589 788 L596 788 L597 787 L599 787 L603 783 L603 782 L599 780 L596 783 L590 783 L588 782 L585 778 L586 777 L604 777 L604 770 L600 764 L598 763 L596 763 L595 762 Z M595 769 L596 768 L597 769 L596 770 Z M585 772 L586 770 L590 767 L595 767 L596 768 L594 769 L595 770 L597 769 L599 772 L598 773 L586 773 Z M538 762 L537 763 L535 763 L533 764 L529 768 L528 770 L528 773 L527 774 L527 776 L528 777 L528 780 L530 784 L532 786 L534 787 L536 787 L537 788 L544 788 L545 787 L547 787 L551 783 L551 782 L547 780 L545 782 L543 783 L541 783 L540 784 L539 783 L537 783 L533 779 L533 778 L534 777 L552 777 L552 770 L549 766 L549 765 L548 765 L546 763 L544 763 L543 762 Z M533 772 L535 769 L537 770 L535 769 L538 767 L543 767 L546 770 L547 772 L546 773 L534 773 Z M499 763 L497 763 L496 762 L492 762 L491 763 L489 763 L487 765 L486 763 L481 763 L481 802 L486 802 L486 787 L487 786 L491 788 L498 788 L502 786 L505 783 L506 781 L506 778 L507 777 L506 770 L505 768 L501 764 Z M492 767 L496 767 L501 772 L501 778 L500 780 L496 783 L491 783 L489 782 L486 778 L486 773 L487 772 L488 774 L487 771 L488 770 L489 771 L488 770 Z M435 763 L435 787 L438 787 L439 788 L440 787 L440 773 L441 772 L441 770 L445 767 L447 767 L450 769 L448 770 L450 770 L451 771 L451 787 L456 787 L456 773 L457 772 L457 770 L460 767 L464 767 L467 771 L467 787 L470 787 L471 788 L472 787 L472 768 L469 764 L465 762 L461 762 L457 764 L455 766 L452 763 L450 762 L445 762 L441 765 L440 763 Z M412 762 L411 763 L409 763 L407 764 L403 768 L402 770 L402 774 L401 775 L402 777 L402 781 L408 787 L410 787 L411 788 L418 788 L422 786 L426 782 L427 780 L427 771 L426 770 L426 768 L422 764 L420 763 L418 763 L417 762 Z M413 767 L416 767 L418 768 L421 771 L422 773 L422 778 L421 780 L417 783 L412 783 L410 782 L407 779 L407 772 L409 769 Z M805 756 L804 757 L804 762 L803 763 L800 763 L799 764 L799 767 L801 768 L803 768 L804 769 L804 782 L805 783 L805 785 L808 788 L816 788 L816 783 L811 783 L809 780 L809 772 L810 771 L809 769 L810 768 L816 768 L816 763 L810 763 L809 762 L810 761 L810 758 L809 756 Z M562 756 L561 757 L561 762 L560 763 L556 763 L556 767 L557 768 L560 768 L561 769 L561 783 L562 785 L565 788 L572 788 L573 787 L573 782 L572 783 L568 783 L566 780 L566 769 L567 768 L572 768 L573 767 L573 763 L568 763 L567 762 L567 759 L566 758 L566 756 Z M825 751 L823 755 L825 758 L828 758 L830 756 L830 753 L828 751 Z M643 751 L642 752 L642 756 L644 756 L645 757 L646 756 L653 756 L654 757 L654 787 L659 787 L659 757 L660 756 L671 756 L671 751 Z M630 751 L629 752 L629 754 L630 755 L630 765 L629 766 L629 784 L630 785 L630 787 L635 787 L635 752 L634 751 Z M703 750 L702 751 L700 751 L698 752 L694 756 L694 758 L693 759 L694 766 L698 770 L700 771 L702 771 L703 772 L705 772 L709 774 L711 776 L711 779 L710 781 L707 783 L702 783 L696 780 L694 782 L693 782 L693 784 L695 786 L699 788 L709 788 L713 786 L715 784 L717 780 L717 774 L716 772 L713 769 L709 767 L707 767 L706 766 L704 766 L702 765 L699 762 L699 760 L702 756 L709 756 L713 758 L716 755 L716 754 L714 752 L712 751 L710 751 L709 750 Z M379 750 L378 751 L373 752 L367 757 L363 765 L363 773 L364 774 L364 777 L366 781 L372 786 L374 787 L376 787 L377 788 L387 788 L388 787 L390 787 L392 786 L394 784 L395 785 L394 784 L395 783 L395 781 L392 778 L389 781 L385 783 L378 783 L374 781 L371 778 L369 774 L369 766 L370 765 L370 763 L371 762 L372 764 L373 761 L376 759 L375 758 L378 756 L381 756 L382 755 L383 756 L386 756 L390 759 L392 759 L394 757 L395 757 L395 756 L391 752 L389 751 L386 751 L385 750 Z M371 762 L372 761 L373 762 L372 763 Z M372 760 L373 759 L374 760 L373 761 Z M373 759 L374 758 L376 759 L375 760 Z M758 749 L757 750 L757 753 L758 754 L757 756 L757 787 L759 788 L762 788 L763 787 L763 749 Z M515 749 L514 750 L514 787 L520 787 L520 749 Z"/>
</svg>