<svg xmlns="http://www.w3.org/2000/svg" viewBox="80 400 1100 450" role="img" aria-labelledby="title desc">
  <title id="title">MAYS Computers</title>
  <desc id="desc">MAYS Computers - Complete IT Solution, light theme logo</desc>
  <defs>
    <linearGradient id="mainBlue" x1="0" y1="0" x2="1" y2="1">
      <stop offset="0" stop-color="#001A63"/>
      <stop offset="1" stop-color="#082F8E"/>
    </linearGradient>
    <linearGradient id="accentBlue" x1="0" y1="0" x2="1" y2="0">
      <stop offset="0" stop-color="#062C82"/>
      <stop offset="1" stop-color="#0A3A9E"/>
    </linearGradient>
  </defs>
  <path fill="url(#mainBlue)" fill-rule="evenodd" d="M919 473 L915 481 L915 483 L913 487 L913 491 L912 492 L912 509 L913 510 L914 517 L920 529 L931 540 L932 540 L937 544 L939 545 L941 545 L944 547 L946 547 L949 549 L952 549 L953 550 L956 550 L957 551 L963 551 L964 552 L1082 552 L1083 553 L1086 553 L1087 554 L1089 554 L1091 556 L1092 556 L1097 561 L1099 565 L1099 568 L1100 569 L1100 575 L1099 576 L1098 581 L1096 583 L1096 584 L1092 588 L1086 591 L1084 591 L1083 592 L919 592 L918 593 L918 624 L1086 624 L1087 623 L1092 623 L1093 622 L1096 622 L1097 621 L1099 621 L1100 620 L1105 619 L1109 617 L1111 615 L1114 614 L1117 611 L1118 611 L1125 604 L1125 603 L1130 597 L1132 593 L1132 591 L1134 588 L1134 585 L1135 584 L1135 580 L1136 579 L1136 561 L1135 560 L1135 557 L1134 556 L1133 551 L1129 543 L1126 540 L1126 539 L1118 531 L1112 528 L1110 526 L1108 526 L1105 524 L1103 524 L1099 522 L1096 522 L1095 521 L1091 521 L1090 520 L967 520 L966 519 L963 519 L957 516 L955 514 L954 514 L949 506 L949 495 L950 494 L950 492 L951 490 L957 484 L963 481 L967 481 L968 480 L1127 480 L1127 448 L961 448 L960 449 L956 449 L955 450 L952 450 L951 451 L949 451 L948 452 L943 453 L937 456 L935 458 L931 460 L922 469 L922 470 Z M650 447 L702 500 L702 501 L749 548 L749 549 L760 560 L760 624 L798 624 L799 623 L799 560 L820 539 L820 538 L866 492 L866 491 L909 447 L860 447 L846 461 L846 462 L797 511 L797 512 L780 529 L779 529 L755 505 L755 504 L730 479 L730 478 L699 447 Z M120 447 L120 624 L158 624 L158 500 L159 499 L161 501 L161 502 L173 514 L173 515 L192 535 L192 536 L201 545 L201 546 L210 555 L210 556 L218 564 L218 565 L228 575 L228 576 L235 583 L235 584 L245 594 L245 595 L252 602 L252 603 L253 603 L258 598 L258 597 L270 585 L270 584 L292 561 L292 560 L303 549 L303 548 L313 538 L313 537 L323 527 L323 526 L334 515 L334 514 L346 502 L346 501 L348 499 L349 500 L349 624 L387 624 L388 623 L388 447 L347 447 L346 449 L329 466 L329 467 L308 489 L308 490 L298 500 L298 501 L289 510 L289 511 L279 521 L279 522 L269 532 L269 533 L253 550 L234 530 L234 529 L224 519 L224 518 L215 509 L215 508 L197 489 L197 488 L190 481 L190 480 L180 470 L180 469 L172 461 L172 460 L162 450 L162 449 L160 447 Z M412 623 L412 624 L459 624 L462 621 L462 620 L465 617 L465 616 L468 613 L468 612 L473 607 L473 606 L476 603 L476 602 L480 598 L480 597 L483 594 L483 593 L487 589 L487 588 L490 585 L490 584 L494 580 L494 579 L497 576 L497 575 L500 572 L500 571 L503 568 L503 567 L511 558 L511 557 L514 554 L514 553 L517 550 L517 549 L521 545 L521 544 L524 541 L524 540 L528 536 L528 535 L531 532 L531 531 L535 527 L535 526 L538 523 L538 522 L541 519 L541 518 L544 515 L544 514 L547 511 L547 510 L550 507 L550 506 L554 502 L554 501 L556 500 L561 506 L561 507 L564 510 L564 511 L568 515 L568 516 L571 519 L571 520 L574 523 L574 524 L577 527 L577 528 L580 531 L580 532 L583 535 L583 536 L587 540 L587 541 L590 544 L590 545 L593 548 L593 549 L596 552 L596 553 L604 562 L604 563 L607 566 L607 567 L610 570 L610 571 L613 574 L613 575 L617 579 L617 580 L620 583 L620 584 L623 587 L623 588 L626 591 L626 592 L630 596 L630 597 L633 600 L633 601 L640 609 L642 613 L646 617 L646 618 L650 622 L651 624 L698 624 L696 620 L693 617 L693 616 L690 613 L690 612 L686 608 L686 607 L683 604 L683 603 L680 600 L680 599 L677 596 L677 595 L674 592 L674 591 L669 586 L669 585 L666 582 L666 581 L663 578 L663 577 L659 573 L659 572 L652 564 L652 563 L648 559 L648 558 L641 550 L641 549 L638 546 L638 545 L630 536 L630 535 L627 532 L627 531 L624 528 L624 527 L620 523 L620 522 L616 518 L616 517 L613 514 L613 513 L609 509 L609 508 L597 494 L597 493 L590 485 L590 484 L585 479 L585 478 L578 470 L578 469 L575 466 L575 465 L570 460 L570 459 L567 456 L567 455 L564 452 L564 451 L559 446 L552 446 L546 452 L546 453 L534 467 L534 468 L531 471 L531 472 L523 481 L523 482 L520 485 L520 486 L517 489 L517 490 L509 499 L509 500 L506 503 L506 504 L498 513 L498 514 L495 517 L495 518 L487 527 L487 528 L484 531 L484 532 L480 536 L480 537 L468 551 L468 552 L465 555 L465 556 L461 560 L461 561 L458 564 L458 565 L450 574 L450 575 L447 578 L447 579 L444 582 L444 583 L441 586 L441 587 L437 591 L437 592 L433 596 L433 597 L429 601 L429 602 L426 605 L426 606 L422 610 L422 611 L418 615 L418 616 Z"/>
  <path fill="#2B2C31" fill-rule="evenodd" d="M976 663 L972 665 L970 667 L969 667 L966 671 L966 673 L965 674 L965 678 L966 679 L966 681 L971 686 L973 687 L975 687 L976 688 L979 688 L980 689 L983 689 L984 690 L989 691 L991 693 L992 695 L992 697 L991 699 L987 702 L977 702 L976 701 L974 701 L972 699 L968 697 L965 700 L964 703 L965 703 L968 706 L970 707 L972 707 L973 708 L975 708 L976 709 L988 709 L989 708 L991 708 L993 707 L998 702 L999 700 L999 691 L998 689 L994 685 L990 683 L985 682 L984 681 L977 680 L974 677 L974 673 L977 670 L979 670 L980 669 L984 669 L994 674 L997 671 L998 668 L988 663 Z M881 663 L880 664 L880 708 L888 708 L888 692 L889 691 L896 691 L899 695 L902 702 L904 704 L906 708 L915 708 L905 692 L905 691 L909 689 L913 685 L914 683 L914 681 L915 680 L915 674 L914 673 L914 671 L913 669 L910 666 L906 664 L903 664 L902 663 Z M888 671 L889 670 L902 670 L906 673 L907 675 L907 679 L906 681 L903 684 L901 685 L889 685 L888 684 Z M798 663 L797 664 L797 708 L828 708 L828 702 L806 702 L805 701 L805 690 L806 689 L827 689 L828 688 L828 683 L827 682 L806 682 L805 681 L805 671 L806 670 L828 670 L828 664 L827 663 Z M712 663 L711 664 L711 669 L712 670 L724 670 L725 671 L725 708 L733 708 L733 671 L734 670 L746 670 L747 669 L747 664 L746 663 Z M622 663 L622 697 L625 703 L630 707 L632 707 L636 709 L646 709 L647 708 L650 708 L654 706 L657 703 L660 697 L660 678 L661 677 L661 671 L660 670 L660 663 L653 663 L653 693 L652 694 L652 696 L651 698 L649 700 L645 702 L637 702 L633 700 L630 696 L630 694 L629 693 L629 664 L628 663 Z M562 664 L559 664 L558 663 L537 663 L536 664 L536 708 L544 708 L544 692 L545 691 L560 691 L561 690 L563 690 L565 689 L569 685 L570 683 L570 680 L571 679 L571 675 L567 667 L566 667 Z M544 671 L545 670 L558 670 L562 673 L563 675 L563 679 L562 681 L559 684 L557 684 L556 685 L545 685 L544 684 Z M435 664 L435 708 L443 708 L443 677 L444 676 L447 682 L447 684 L450 689 L450 691 L452 694 L452 696 L454 699 L454 701 L456 704 L456 706 L457 708 L461 708 L461 706 L463 703 L463 701 L465 698 L465 696 L467 693 L467 691 L470 686 L470 684 L474 676 L475 677 L475 708 L482 708 L483 707 L482 706 L483 705 L483 690 L482 689 L482 679 L483 678 L483 667 L482 666 L482 663 L472 663 L471 664 L471 666 L468 671 L468 673 L466 676 L466 678 L463 683 L463 685 L459 693 L455 686 L455 684 L453 681 L452 676 L449 671 L449 669 L448 668 L448 666 L446 663 L436 663 Z M356 663 L355 664 L353 664 L349 666 L342 673 L340 677 L340 679 L339 680 L339 692 L344 702 L346 703 L349 706 L353 708 L356 708 L357 709 L367 709 L368 708 L370 708 L371 707 L373 707 L375 706 L381 700 L381 699 L383 697 L383 695 L384 694 L384 691 L385 690 L385 681 L384 680 L384 678 L383 677 L383 675 L382 673 L375 666 L371 664 L369 664 L368 663 Z M360 669 L364 669 L365 670 L367 670 L371 672 L374 675 L377 681 L377 690 L376 691 L376 693 L375 695 L369 701 L367 701 L366 702 L357 702 L355 701 L350 697 L347 691 L347 681 L348 680 L348 678 L353 672 L354 672 L356 670 L359 670 Z M269 663 L268 664 L266 664 L260 667 L254 674 L253 676 L253 678 L252 679 L252 682 L251 683 L251 689 L252 690 L252 694 L254 698 L256 700 L256 701 L260 705 L266 708 L269 708 L270 709 L280 709 L288 705 L292 701 L293 699 L292 699 L288 696 L286 696 L281 701 L279 702 L270 702 L266 700 L261 695 L260 693 L260 691 L259 690 L259 682 L260 681 L260 679 L261 677 L267 671 L269 670 L271 670 L272 669 L277 669 L278 670 L280 670 L282 671 L286 675 L286 676 L291 674 L292 673 L292 671 L287 666 L281 663 Z"/>
  <path fill="url(#accentBlue)" fill-rule="evenodd" d="M1038 685 L1038 690 L1131 690 L1131 685 Z M121 685 L121 690 L215 690 L215 685 Z"/>
  <path fill="url(#accentBlue)" fill-rule="evenodd" d="M931 776 L931 779 L932 780 L1069 780 L1070 779 L1070 775 L932 775 Z M184 776 L184 779 L185 780 L320 780 L322 779 L322 775 L185 775 Z M825 769 L825 793 L830 793 L830 769 Z M772 769 L772 788 L773 790 L776 793 L778 794 L784 794 L788 791 L789 793 L794 793 L794 770 L793 769 L789 769 L789 785 L785 789 L782 790 L781 789 L779 789 L777 786 L777 769 Z M872 769 L872 793 L877 793 L877 778 L878 776 L881 773 L883 772 L885 773 L887 773 L889 776 L889 792 L890 793 L894 793 L894 774 L893 772 L890 769 L888 768 L882 768 L878 771 L877 769 Z M848 768 L844 770 L839 775 L839 777 L838 778 L838 784 L839 785 L839 787 L845 793 L847 793 L848 794 L854 794 L855 793 L857 793 L862 789 L864 785 L864 777 L862 773 L859 770 L855 768 Z M850 772 L855 773 L858 776 L859 778 L859 784 L858 786 L855 789 L853 789 L852 790 L847 789 L844 786 L843 784 L843 778 L844 776 L846 774 Z M733 768 L732 769 L730 769 L728 770 L725 773 L723 777 L723 786 L724 788 L728 792 L730 793 L732 793 L733 794 L739 794 L745 791 L748 787 L748 785 L749 784 L749 778 L748 777 L748 775 L742 769 L740 769 L739 768 Z M735 772 L737 772 L741 774 L744 779 L744 783 L742 787 L737 790 L732 789 L729 786 L728 784 L728 778 L729 776 L732 773 L734 773 Z M587 768 L586 769 L584 769 L582 770 L578 774 L577 776 L577 780 L576 781 L577 782 L577 786 L578 788 L582 792 L586 794 L593 794 L597 792 L600 789 L598 787 L596 787 L592 790 L587 790 L583 787 L582 784 L583 783 L601 783 L601 777 L599 773 L595 769 L593 768 Z M582 776 L585 773 L587 772 L592 772 L596 776 L596 778 L595 779 L583 779 L582 778 Z M533 768 L529 770 L526 773 L524 777 L524 786 L525 788 L529 792 L533 794 L540 794 L541 793 L543 793 L547 790 L547 789 L544 786 L541 789 L539 790 L535 790 L531 788 L529 784 L530 783 L547 783 L548 782 L548 776 L545 772 L545 771 L544 771 L542 769 L540 768 Z M529 777 L530 775 L534 772 L539 772 L541 773 L543 776 L543 778 L542 779 L530 779 Z M497 770 L493 768 L487 768 L486 769 L484 769 L482 771 L481 769 L476 769 L476 807 L481 807 L481 792 L482 791 L484 793 L486 793 L487 794 L493 794 L497 792 L500 789 L502 785 L502 777 L499 773 L499 772 Z M488 772 L493 773 L496 776 L497 778 L497 784 L496 786 L494 788 L492 789 L490 789 L489 790 L487 789 L485 789 L482 786 L481 784 L481 778 L482 776 L485 773 L487 773 Z M430 769 L430 793 L434 793 L434 778 L435 776 L438 773 L440 772 L443 773 L446 777 L446 793 L450 793 L450 780 L451 779 L451 776 L454 773 L456 772 L458 772 L462 776 L462 793 L466 793 L467 792 L467 787 L466 786 L466 773 L463 769 L461 768 L455 768 L453 769 L450 772 L447 769 L445 768 L439 768 L435 771 L434 769 Z M405 768 L404 769 L402 769 L397 774 L395 778 L395 784 L396 785 L396 787 L402 793 L404 793 L405 794 L412 794 L416 792 L419 789 L421 785 L421 777 L419 773 L416 770 L412 768 Z M407 772 L412 773 L416 777 L416 785 L412 789 L410 789 L409 790 L404 789 L401 786 L400 784 L400 778 L401 776 L403 774 Z M805 762 L805 768 L804 769 L800 769 L800 773 L804 773 L805 774 L805 790 L807 792 L807 793 L809 794 L815 794 L817 793 L817 789 L815 789 L813 790 L810 788 L810 774 L811 773 L816 773 L816 769 L811 769 L810 768 L810 762 Z M558 762 L558 768 L557 769 L556 768 L555 769 L554 768 L553 769 L553 773 L557 773 L558 774 L558 789 L559 791 L563 794 L568 794 L570 793 L570 789 L568 789 L566 790 L563 788 L563 774 L564 773 L569 773 L570 772 L570 769 L566 769 L565 768 L564 769 L563 768 L563 762 Z M827 756 L824 759 L824 760 L826 763 L829 763 L831 759 L828 756 Z M700 756 L696 758 L694 760 L692 764 L692 770 L693 772 L696 775 L700 777 L702 777 L703 778 L705 778 L707 779 L710 782 L710 786 L707 789 L699 789 L695 786 L694 786 L691 789 L691 790 L695 793 L697 793 L698 794 L707 794 L711 792 L714 789 L715 787 L715 785 L716 784 L716 782 L715 781 L715 779 L714 777 L712 775 L708 773 L703 772 L701 771 L698 768 L698 763 L704 760 L706 761 L708 761 L712 763 L715 760 L715 759 L714 759 L710 756 Z M641 756 L640 757 L640 761 L651 761 L652 762 L652 793 L657 793 L657 762 L658 761 L669 761 L669 757 L668 756 L656 756 L655 757 L651 757 L650 756 Z M628 756 L627 757 L627 793 L632 793 L632 757 L631 756 Z M370 756 L369 757 L367 757 L365 758 L359 764 L357 768 L357 770 L356 771 L356 780 L357 781 L357 783 L358 785 L365 792 L367 793 L369 793 L370 794 L380 794 L381 793 L383 793 L385 792 L389 788 L386 785 L384 785 L381 788 L379 789 L377 789 L376 790 L374 790 L373 789 L370 789 L368 788 L364 784 L362 780 L362 770 L364 766 L368 762 L370 761 L373 761 L374 760 L376 760 L377 761 L379 761 L381 762 L384 765 L387 762 L388 762 L388 761 L383 757 L381 757 L380 756 Z M758 754 L757 755 L757 793 L762 793 L762 755 L761 754 Z M512 754 L511 755 L511 793 L515 793 L515 755 L514 754 Z"/>
</svg>